<mxfile host="Electron" modified="2024-10-20T18:00:03.339Z" agent="Mozilla/5.0 (Windows NT 10.0; Win64; x64) AppleWebKit/537.36 (KHTML, like Gecko) draw.io/22.1.2 Chrome/114.0.5735.289 Electron/25.9.4 Safari/537.36" etag="nwEtvtloPjDLDfXDzNxD" version="22.1.2" type="device">
  <diagram name="Sayfa -1" id="HoQtOuAJx_yg4jJX0E5g">
    <mxGraphModel dx="276" dy="679" grid="1" gridSize="10" guides="1" tooltips="1" connect="1" arrows="1" fold="1" page="1" pageScale="1" pageWidth="900" pageHeight="1600" math="0" shadow="0">
      <root>
        <mxCell id="0" />
        <mxCell id="1" parent="0" />
        <mxCell id="bfOkgaDvjYDrKd69L7bQ-1" value="User" style="shape=umlActor;verticalLabelPosition=bottom;verticalAlign=top;html=1;" parent="1" vertex="1">
          <mxGeometry x="940" y="240" width="60" height="120" as="geometry" />
        </mxCell>
        <mxCell id="bfOkgaDvjYDrKd69L7bQ-13" value="&lt;span style=&quot;font-weight: normal;&quot;&gt;Bee Plan CSS&lt;/span&gt;" style="swimlane;whiteSpace=wrap;html=1;" parent="1" vertex="1">
          <mxGeometry x="1050" y="80" width="600" height="940" as="geometry">
            <mxRectangle x="1050" y="80" width="120" height="30" as="alternateBounds" />
          </mxGeometry>
        </mxCell>
        <mxCell id="bfOkgaDvjYDrKd69L7bQ-14" value="Upload a file to the system from any destination" style="ellipse;whiteSpace=wrap;html=1;" parent="bfOkgaDvjYDrKd69L7bQ-13" vertex="1">
          <mxGeometry x="230" y="30" width="140" height="70" as="geometry" />
        </mxCell>
        <mxCell id="bfOkgaDvjYDrKd69L7bQ-17" value="&lt;p style=&quot;line-height: 90%;&quot;&gt;&lt;font style=&quot;font-size: 11px;&quot;&gt;Integrate the provided file into its internal data structure&lt;/font&gt;&lt;/p&gt;" style="ellipse;whiteSpace=wrap;html=1;" parent="bfOkgaDvjYDrKd69L7bQ-13" vertex="1">
          <mxGeometry x="230" y="110" width="140" height="70" as="geometry" />
        </mxCell>
        <mxCell id="bfOkgaDvjYDrKd69L7bQ-18" value="Generate a conflict-free course schedule" style="ellipse;whiteSpace=wrap;html=1;" parent="bfOkgaDvjYDrKd69L7bQ-13" vertex="1">
          <mxGeometry x="230" y="190" width="140" height="70" as="geometry" />
        </mxCell>
        <mxCell id="bfOkgaDvjYDrKd69L7bQ-19" value="&lt;div style=&quot;line-height: 70%;&quot;&gt;&lt;span style=&quot;background-color: initial;&quot;&gt;&lt;font style=&quot;font-size: 10px;&quot;&gt;Prompt the user to specify a destination where the generated course schedule will be saved&lt;/font&gt;&lt;/span&gt;&lt;br&gt;&lt;/div&gt;" style="ellipse;whiteSpace=wrap;html=1;align=center;" parent="bfOkgaDvjYDrKd69L7bQ-13" vertex="1">
          <mxGeometry x="230" y="270" width="140" height="70" as="geometry" />
        </mxCell>
        <mxCell id="bfOkgaDvjYDrKd69L7bQ-20" value="Choose a destination where the file will be saved." style="ellipse;whiteSpace=wrap;html=1;" parent="bfOkgaDvjYDrKd69L7bQ-13" vertex="1">
          <mxGeometry x="230" y="350" width="140" height="70" as="geometry" />
        </mxCell>
        <mxCell id="bfOkgaDvjYDrKd69L7bQ-21" value="&lt;font style=&quot;font-size: 10px;&quot;&gt;Save the generated course schedule to the userâ€™s predefined destination&lt;/font&gt;" style="ellipse;whiteSpace=wrap;html=1;" parent="bfOkgaDvjYDrKd69L7bQ-13" vertex="1">
          <mxGeometry x="230" y="430" width="140" height="70" as="geometry" />
        </mxCell>
        <mxCell id="bfOkgaDvjYDrKd69L7bQ-22" value="&lt;font style=&quot;font-size: 15px;&quot;&gt;Run the process&lt;br&gt;box&amp;nbsp;&lt;/font&gt;" style="ellipse;whiteSpace=wrap;html=1;" parent="bfOkgaDvjYDrKd69L7bQ-13" vertex="1">
          <mxGeometry x="230" y="510" width="140" height="70" as="geometry" />
        </mxCell>
        <mxCell id="bfOkgaDvjYDrKd69L7bQ-23" value="&amp;lt;&amp;lt;include&amp;gt;&amp;gt;" style="edgeStyle=none;html=1;endArrow=open;verticalAlign=bottom;dashed=1;labelBackgroundColor=none;rounded=0;exitX=0.5;exitY=1;exitDx=0;exitDy=0;entryX=0.5;entryY=0;entryDx=0;entryDy=0;" parent="bfOkgaDvjYDrKd69L7bQ-13" source="bfOkgaDvjYDrKd69L7bQ-22" target="bfOkgaDvjYDrKd69L7bQ-24" edge="1">
          <mxGeometry width="160" relative="1" as="geometry">
            <mxPoint x="240" y="650" as="sourcePoint" />
            <mxPoint x="300" y="650" as="targetPoint" />
          </mxGeometry>
        </mxCell>
        <mxCell id="bfOkgaDvjYDrKd69L7bQ-24" value="Welcome to user and explain how to system works" style="ellipse;whiteSpace=wrap;html=1;" parent="bfOkgaDvjYDrKd69L7bQ-13" vertex="1">
          <mxGeometry x="370" y="660" width="140" height="70" as="geometry" />
        </mxCell>
        <mxCell id="bfOkgaDvjYDrKd69L7bQ-25" value="Inform the user about system status" style="ellipse;whiteSpace=wrap;html=1;" parent="bfOkgaDvjYDrKd69L7bQ-13" vertex="1">
          <mxGeometry x="90" y="660" width="140" height="70" as="geometry" />
        </mxCell>
        <mxCell id="bfOkgaDvjYDrKd69L7bQ-26" value="&amp;lt;&amp;lt;include&amp;gt;&amp;gt;" style="edgeStyle=none;html=1;endArrow=open;verticalAlign=bottom;dashed=1;labelBackgroundColor=none;rounded=0;exitX=0.5;exitY=1;exitDx=0;exitDy=0;entryX=0.5;entryY=0;entryDx=0;entryDy=0;" parent="bfOkgaDvjYDrKd69L7bQ-13" source="bfOkgaDvjYDrKd69L7bQ-22" target="bfOkgaDvjYDrKd69L7bQ-25" edge="1">
          <mxGeometry width="160" relative="1" as="geometry">
            <mxPoint x="310" y="590" as="sourcePoint" />
            <mxPoint x="310" y="660" as="targetPoint" />
          </mxGeometry>
        </mxCell>
        <mxCell id="bfOkgaDvjYDrKd69L7bQ-27" value="&amp;lt;&amp;lt;extend&amp;gt;&amp;gt;" style="edgeStyle=none;html=1;startArrow=open;endArrow=none;startSize=12;verticalAlign=bottom;dashed=1;labelBackgroundColor=none;rounded=0;exitX=1;exitY=1;exitDx=0;exitDy=0;entryX=0.5;entryY=0;entryDx=0;entryDy=0;" parent="bfOkgaDvjYDrKd69L7bQ-13" source="bfOkgaDvjYDrKd69L7bQ-25" target="bfOkgaDvjYDrKd69L7bQ-28" edge="1">
          <mxGeometry width="160" relative="1" as="geometry">
            <mxPoint x="140" y="790" as="sourcePoint" />
            <mxPoint x="300" y="790" as="targetPoint" />
          </mxGeometry>
        </mxCell>
        <mxCell id="bfOkgaDvjYDrKd69L7bQ-28" value="Prompt the error message and possible solutions to the user" style="ellipse;whiteSpace=wrap;html=1;" parent="bfOkgaDvjYDrKd69L7bQ-13" vertex="1">
          <mxGeometry x="240" y="780" width="140" height="70" as="geometry" />
        </mxCell>
        <mxCell id="bfOkgaDvjYDrKd69L7bQ-29" value="Prompt the success message and say goodbye to the user" style="ellipse;whiteSpace=wrap;html=1;" parent="bfOkgaDvjYDrKd69L7bQ-13" vertex="1">
          <mxGeometry x="90" y="850" width="140" height="70" as="geometry" />
        </mxCell>
        <mxCell id="bfOkgaDvjYDrKd69L7bQ-30" value="&amp;lt;&amp;lt;extend&amp;gt;&amp;gt;" style="edgeStyle=none;html=1;startArrow=open;endArrow=none;startSize=12;verticalAlign=bottom;dashed=1;labelBackgroundColor=none;rounded=0;exitX=0.5;exitY=1;exitDx=0;exitDy=0;entryX=0.5;entryY=0;entryDx=0;entryDy=0;" parent="bfOkgaDvjYDrKd69L7bQ-13" source="bfOkgaDvjYDrKd69L7bQ-25" target="bfOkgaDvjYDrKd69L7bQ-29" edge="1">
          <mxGeometry width="160" relative="1" as="geometry">
            <mxPoint x="150" y="690" as="sourcePoint" />
            <mxPoint x="310" y="690" as="targetPoint" />
          </mxGeometry>
        </mxCell>
        <mxCell id="bfOkgaDvjYDrKd69L7bQ-16" value="System" style="shape=umlActor;verticalLabelPosition=bottom;verticalAlign=top;html=1;" parent="1" vertex="1">
          <mxGeometry x="1700" y="325" width="60" height="120" as="geometry" />
        </mxCell>
        <mxCell id="bfOkgaDvjYDrKd69L7bQ-31" value="" style="endArrow=open;endSize=12;dashed=1;html=1;rounded=0;entryX=0;entryY=0.5;entryDx=0;entryDy=0;exitX=0.5;exitY=0.5;exitDx=0;exitDy=0;exitPerimeter=0;" parent="1" source="bfOkgaDvjYDrKd69L7bQ-1" target="bfOkgaDvjYDrKd69L7bQ-14" edge="1">
          <mxGeometry width="160" relative="1" as="geometry">
            <mxPoint x="1000" y="179.66" as="sourcePoint" />
            <mxPoint x="1160" y="179.66" as="targetPoint" />
          </mxGeometry>
        </mxCell>
        <mxCell id="bfOkgaDvjYDrKd69L7bQ-32" value="" style="endArrow=open;endSize=12;dashed=1;html=1;rounded=0;entryX=1;entryY=0.5;entryDx=0;entryDy=0;exitX=0.5;exitY=0.5;exitDx=0;exitDy=0;exitPerimeter=0;" parent="1" source="bfOkgaDvjYDrKd69L7bQ-16" target="bfOkgaDvjYDrKd69L7bQ-17" edge="1">
          <mxGeometry width="160" relative="1" as="geometry">
            <mxPoint x="1700" y="170" as="sourcePoint" />
            <mxPoint x="1390" y="170" as="targetPoint" />
          </mxGeometry>
        </mxCell>
        <mxCell id="bfOkgaDvjYDrKd69L7bQ-33" value="" style="endArrow=open;endSize=12;dashed=1;html=1;rounded=0;entryX=1;entryY=0.5;entryDx=0;entryDy=0;exitX=0.5;exitY=0.5;exitDx=0;exitDy=0;exitPerimeter=0;" parent="1" source="bfOkgaDvjYDrKd69L7bQ-16" target="bfOkgaDvjYDrKd69L7bQ-18" edge="1">
          <mxGeometry width="160" relative="1" as="geometry">
            <mxPoint x="1740" y="190" as="sourcePoint" />
            <mxPoint x="1430" y="235" as="targetPoint" />
          </mxGeometry>
        </mxCell>
        <mxCell id="bfOkgaDvjYDrKd69L7bQ-34" value="" style="endArrow=open;endSize=12;dashed=1;html=1;rounded=0;entryX=1;entryY=0.5;entryDx=0;entryDy=0;exitX=0.5;exitY=0.5;exitDx=0;exitDy=0;exitPerimeter=0;" parent="1" source="bfOkgaDvjYDrKd69L7bQ-16" target="bfOkgaDvjYDrKd69L7bQ-19" edge="1">
          <mxGeometry width="160" relative="1" as="geometry">
            <mxPoint x="1740" y="190" as="sourcePoint" />
            <mxPoint x="1430" y="315" as="targetPoint" />
          </mxGeometry>
        </mxCell>
        <mxCell id="bfOkgaDvjYDrKd69L7bQ-35" value="" style="endArrow=open;endSize=12;dashed=1;html=1;rounded=0;entryX=0;entryY=0.5;entryDx=0;entryDy=0;exitX=0.534;exitY=0.543;exitDx=0;exitDy=0;exitPerimeter=0;" parent="1" source="bfOkgaDvjYDrKd69L7bQ-1" target="bfOkgaDvjYDrKd69L7bQ-20" edge="1">
          <mxGeometry width="160" relative="1" as="geometry">
            <mxPoint x="980" y="190" as="sourcePoint" />
            <mxPoint x="1290" y="155" as="targetPoint" />
          </mxGeometry>
        </mxCell>
        <mxCell id="bfOkgaDvjYDrKd69L7bQ-36" value="" style="endArrow=open;endSize=12;dashed=1;html=1;rounded=0;entryX=1;entryY=0.5;entryDx=0;entryDy=0;exitX=0.5;exitY=0.5;exitDx=0;exitDy=0;exitPerimeter=0;" parent="1" source="bfOkgaDvjYDrKd69L7bQ-16" target="bfOkgaDvjYDrKd69L7bQ-21" edge="1">
          <mxGeometry width="160" relative="1" as="geometry">
            <mxPoint x="1740" y="190" as="sourcePoint" />
            <mxPoint x="1430" y="395" as="targetPoint" />
          </mxGeometry>
        </mxCell>
        <mxCell id="bfOkgaDvjYDrKd69L7bQ-37" value="" style="endArrow=open;endSize=12;dashed=1;html=1;rounded=0;entryX=1;entryY=0.5;entryDx=0;entryDy=0;exitX=0.5;exitY=0.5;exitDx=0;exitDy=0;exitPerimeter=0;" parent="1" source="bfOkgaDvjYDrKd69L7bQ-16" target="bfOkgaDvjYDrKd69L7bQ-22" edge="1">
          <mxGeometry width="160" relative="1" as="geometry">
            <mxPoint x="1740" y="190" as="sourcePoint" />
            <mxPoint x="1430" y="555" as="targetPoint" />
          </mxGeometry>
        </mxCell>
      </root>
    </mxGraphModel>
  </diagram>
</mxfile>
